<mxfile host="app.diagrams.net" modified="2023-01-18T15:22:47.854Z" agent="5.0 (Windows NT 10.0; Win64; x64) AppleWebKit/537.36 (KHTML, like Gecko) Chrome/109.0.0.0 Safari/537.36" version="20.8.5" etag="Ot5269261mfpWuh9rO3V" type="github">
  <diagram id="GbuyAlCA7ucRLAM9Jsy3" name="Page-1">
    <mxGraphModel dx="2022" dy="630" grid="1" gridSize="10" guides="1" tooltips="1" connect="1" arrows="1" fold="1" page="1" pageScale="1" pageWidth="827" pageHeight="1169" math="0" shadow="0">
      <root>
        <mxCell id="0" />
        <mxCell id="1" parent="0" />
        <mxCell id="qdnZULfPCPuXgq32BraW-32" value="" style="rounded=1;whiteSpace=wrap;html=1;labelBorderColor=none;fontFamily=Lucida Console;fontSize=14;fillColor=#b1ddf0;strokeColor=#10739e;" vertex="1" parent="1">
          <mxGeometry x="150" width="290" height="150" as="geometry" />
        </mxCell>
        <mxCell id="qdnZULfPCPuXgq32BraW-6" value="" style="group" vertex="1" connectable="0" parent="1">
          <mxGeometry x="290" y="10" width="323.5" height="270" as="geometry" />
        </mxCell>
        <mxCell id="qdnZULfPCPuXgq32BraW-7" value="&lt;font color=&quot;#000000&quot; style=&quot;font-size: 16px;&quot;&gt;&lt;b&gt;Raspberry Pi 3B&lt;br&gt;192.168.1.81&lt;/b&gt;&lt;/font&gt;" style="text;html=1;align=center;verticalAlign=middle;resizable=0;points=[];autosize=1;strokeColor=none;fillColor=none;fontColor=#FF8000;fontFamily=Lucida Console;" vertex="1" parent="qdnZULfPCPuXgq32BraW-6">
          <mxGeometry x="-10" y="88.23529411764706" width="170" height="50" as="geometry" />
        </mxCell>
        <mxCell id="qdnZULfPCPuXgq32BraW-8" value="" style="group" vertex="1" connectable="0" parent="qdnZULfPCPuXgq32BraW-6">
          <mxGeometry x="26.79144385026738" width="140.20855614973263" height="150" as="geometry" />
        </mxCell>
        <mxCell id="qdnZULfPCPuXgq32BraW-9" value="" style="group" vertex="1" connectable="0" parent="qdnZULfPCPuXgq32BraW-8">
          <mxGeometry width="75.01604278074866" height="88.67647058823529" as="geometry" />
        </mxCell>
        <mxCell id="qdnZULfPCPuXgq32BraW-10" value="" style="outlineConnect=0;dashed=0;verticalLabelPosition=bottom;verticalAlign=top;align=center;html=1;shape=mxgraph.aws3.hardware_board;fillColor=#5294CF;gradientColor=none;labelBackgroundColor=#000000;fontSize=18;fontColor=#FF8000;" vertex="1" parent="qdnZULfPCPuXgq32BraW-9">
          <mxGeometry width="75.01604278074866" height="88.67647058823529" as="geometry" />
        </mxCell>
        <mxCell id="qdnZULfPCPuXgq32BraW-11" value="" style="shape=image;html=1;verticalAlign=top;verticalLabelPosition=bottom;labelBackgroundColor=#ffffff;imageAspect=0;aspect=fixed;image=https://cdn1.iconfinder.com/data/icons/fruit-136/64/Fruit_iconfree_Filled_Outline_raspberry-healthy-organic-food-fruit_icon-128.png;fontSize=18;fontColor=#FF8000;" vertex="1" parent="qdnZULfPCPuXgq32BraW-9">
          <mxGeometry x="20.540106951871657" y="27.573529411764707" width="33.529411764705884" height="33.529411764705884" as="geometry" />
        </mxCell>
        <mxCell id="qdnZULfPCPuXgq32BraW-12" value="MQTT Broker Server" style="text;html=1;strokeColor=#82b366;fillColor=#d5e8d4;align=center;verticalAlign=middle;whiteSpace=wrap;overflow=hidden;fontFamily=Lucida Console;" vertex="1" parent="1">
          <mxGeometry x="170" y="50" width="138" height="20" as="geometry" />
        </mxCell>
        <mxCell id="qdnZULfPCPuXgq32BraW-18" value="" style="group;fontFamily=Lucida Console;" vertex="1" connectable="0" parent="1">
          <mxGeometry x="620" y="239.99999999999997" width="130" height="70.00000000000003" as="geometry" />
        </mxCell>
        <mxCell id="qdnZULfPCPuXgq32BraW-13" value="" style="sketch=0;aspect=fixed;pointerEvents=1;shadow=0;dashed=0;html=1;strokeColor=none;labelPosition=center;verticalLabelPosition=bottom;verticalAlign=top;align=center;fillColor=#00188D;shape=mxgraph.mscae.enterprise.android_phone" vertex="1" parent="qdnZULfPCPuXgq32BraW-18">
          <mxGeometry y="3.3300000000000125" width="40" height="66.67" as="geometry" />
        </mxCell>
        <mxCell id="qdnZULfPCPuXgq32BraW-16" value="MQTT Publisher and Subscriber" style="text;html=1;strokeColor=#82b366;fillColor=#d5e8d4;align=center;verticalAlign=middle;whiteSpace=wrap;overflow=hidden;fontFamily=Lucida Console;" vertex="1" parent="qdnZULfPCPuXgq32BraW-18">
          <mxGeometry x="50" width="80" height="70" as="geometry" />
        </mxCell>
        <mxCell id="qdnZULfPCPuXgq32BraW-20" value="" style="endArrow=classic;html=1;rounded=0;exitX=0;exitY=0.5;exitDx=0;exitDy=0;exitPerimeter=0;" edge="1" parent="1" source="qdnZULfPCPuXgq32BraW-13">
          <mxGeometry width="50" height="50" relative="1" as="geometry">
            <mxPoint x="490" y="320" as="sourcePoint" />
            <mxPoint x="383.84144971878527" y="148.23529411764707" as="targetPoint" />
          </mxGeometry>
        </mxCell>
        <mxCell id="qdnZULfPCPuXgq32BraW-21" value="Publish on topic:&lt;br style=&quot;font-size: 14px;&quot;&gt;&amp;nbsp;&lt;i style=&quot;font-size: 14px;&quot;&gt;LGSAMROOM01/cmd&lt;/i&gt;" style="edgeLabel;html=1;align=center;verticalAlign=middle;resizable=0;points=[];fontSize=14;labelBorderColor=default;fontFamily=Lucida Console;" vertex="1" connectable="0" parent="qdnZULfPCPuXgq32BraW-20">
          <mxGeometry x="-0.4806" y="-1" relative="1" as="geometry">
            <mxPoint x="-29" y="-72" as="offset" />
          </mxGeometry>
        </mxCell>
        <mxCell id="qdnZULfPCPuXgq32BraW-25" value="Subscribe on topic:&lt;br style=&quot;font-size: 14px;&quot;&gt;&amp;nbsp;&lt;i style=&quot;font-size: 14px;&quot;&gt;LGSAMROOM01/statusRLY1&lt;/i&gt;" style="edgeLabel;html=1;align=center;verticalAlign=middle;resizable=0;points=[];fontSize=14;labelBorderColor=default;fontFamily=Lucida Console;" vertex="1" connectable="0" parent="1">
          <mxGeometry x="590.0009290833812" y="210.00090753018713" as="geometry" />
        </mxCell>
        <mxCell id="qdnZULfPCPuXgq32BraW-27" value="" style="shape=image;verticalLabelPosition=bottom;labelBackgroundColor=default;verticalAlign=top;aspect=fixed;imageAspect=0;image=data:image/png,iVBORw0KGgoAAAANSUhEUgAAAfUAAABkCAMAAACo21lxAAAA7VBMVEX///88UoDzdxw6UH83Tn4zS3wxSns9U4H6+/yYo7rb3+fp6/Dy8/YvSHrL0d4gPnVHW4a5wdFod5pLYYyyusyhq8Dh5ex7iadXaY/zcQDzdBPu8PQoQ3fX2+Tl6O5vfZ7O096OmbO2vc1hcpeAjarzfCeqs8afqL2RnLRSZIz+9e796t9+iqZjdZr97eL0gzD4tor++PP83sn3p276y675wKL1jEb0hzv4tZP5uov2l1f3rXz2lUv71b7yagD95tT5wJj2nGT1iTX0i0n2pHX6yKP5vZz2ll371MH3r4b4rXT2oGr2mmj1iTP3omF3pPtXAAAZX0lEQVR4nO1dCXvauNaOI3kBbIZ9X8waSEIoNNN00kmT6TqdfHf+/8/5bJ9zZMk2gQSahgznuU/n4ghZ0quzH4mjowMd6EAHOtCBDnSgAx3oQHtOqcrP6LVTav6Mbg+0G5rog/bue81U2dDafbcH2g31OOPT7K57Tdd0zTnA/lKpbDJN47n+bnttF3VN01q93fZ6oB1Rv+iB7sM+3iVfZk3u96q1xjvs9EC7ouwA4NGYeWLvqlMrzxn0qvH8rjo90M6o0tURHo2xyY5sbntsMtHr1N1NpwfaGdk9roXEzzO76LSZCkH3YO92dtHpgXZG1ljwefCv3t2B457pAegMoTcnB0P+RVEamZLNUA/z7R33ShW3kDnNwf/JHVT7iyK05PTBUR45k0+3hKhSgz6ZdmKnYC/xQno3wz3QLijVAoBynvHuThl6cFs57u0cWIesWPIUfBV2gDPZmXewt2TnJ71x5QXouo6DojiIy7kFlMzbOO5ZrogMtwYfzZ1H/vaMrGyxZegOn4Tmst0hkttl8Fnmp/FJFdhSP4GP7a4mZPMTe+wbaCdQgLdkwiu6//E8TB6DVs5QLER2ipSTmCxTw4eDn2UL5aOITNC2c56M0dBBF7CADyyU8caO4717RmkKhWmOiFXmOQP6TUbdhKc8V/o5I7G7KNBJ+mZRHOvdJ9vxmSrAznQadAW9uOl/mtnLpohe5OhZXkPPVkUd2/0s1EvgVxkn+NJ0AQ367hYWd6Zq4ORcfDIGi9EpbzvefaaeCIBqLVLjvwR1tK+Fg97soZs1cLfptjPQUcYjc1tFNBlfgPn6q8gaSqi7+PCXoN4PWJ3pxIN5tMO2Dam0i6jCUtRxK6LQ/oMk8fpvFP38Fag3YftxCsFWpgCWKcBxp494sVsU5pqLETky4y3I7zBzNwPfSxrnXoZez4LgJZCtFJhhfEgNXFM3N3bc87ougjtWGcatD9H/cwPVwfhPsk/2gTJdsuH10IZ/ftStVGB18RmyehtGxWsURWh7DiZjmznuVt9hGi+SasiAxcBoHzQhLsC6u53CXlF2EEQyuBaWlP0C1MGBZCYpXwzYOOTFgcBn+mSD1KtdDpiZ11x8gC6gXsUvQ4kFK7orOvgvkDssGg4bnIQO7C9AHYGYogHfxihdFf/cpFoLfbg2OZ6h4I5ewLYW5tdN5P5KAbbY5CdMZG+ome33820J4OdHvdkDAU8oI8gmeeopGhEz1nnvlaEooTBIfHUGCrNbZXhb95CDkej5Ua8EthwzsesOyvcUvj+fC2th9Jn7YE9dTbRlwlQpY0QOvwqmI9swiWtV3KybsNfstvd8fV2OnfaatddqpqbXbF2rxe3l3Zs3b+4ubxdrX/toClGXRyVQXxnC3nB+CZQNLHZmIvOl0LdC067TVcqqag+AlR6gmw//cuzQBg/BwAxrJjAbPOMwoYdKFikdbDmr1K0Vc7lcsTZU8nSd8mya9DxC7UkBmk1rw/5q0dJJBc2K00HPXdlo+c+7+ejYp9H86u1NQgvLpcGrJUgdepy1ok9c/4ntfc9NEbe0oAer7f2bF6hP/L5jg2unxPyq+UfGvWyIGujopllTprD6CaZLGWXcV0qbNqaSsKWmk50OMp3lkDXHwd/1ajwYb6VaekBO1Wtr9bhOSQmuz0Q+oFJlOqPnxsroYX5q0Lf97/NqsnZqDrnUW/KmXlzO643GMVGjUR99jTXKmA4MnqeU52UOjw2DNl6KnvilDN6yGd53QnHqUWuSLjjSQ8aC1gqwdr8G89Ment8KagLMLeSavgkQ4SK7UA3DBqkCor/Kcc86mE2vjWc4XgrNYDU87hew6pmw8kOiQEFgBGRNRxIyTOel4L322DTk55ylEtjYyg4cqUgz6LNVTdAIbk7uTWOtQlxcLv/3MYQcga9f3UQEfYY0oRlBnTiWCdTxCSsGqOciA/XEYiqtSFhsLa27N78WU7+n68NH4F4BAe9gn0OwvTD1a52AvM+Nj9JVWueThJSZlcdV1mttEZEjZqfQH7wCoxQJygoDB358KF3WIovBDH+7ZXp69HlCDXcmZcZWzRsai8l5N7o3NF2kipBO7+pRzIHh31yo78wRW0RRJ2M4RJ0pqMcGuhb1TMpImJ9RLG1sIpcC1PkAPjXBd2cISRq8bVa1fQOdFmYSY5omuOl+Ya0nJOwUCIhiltYWsER0JsFf9bhiD1HvVs0YBzA97/kbTvSxN9hyRPpUhjz2beihp3Jyuxhvx4uKrXDxNglzn+pvz+SGz4h6pdtKmp7HGJuEVAICRjQQgzxY2Jh8s0qokoOFaJLN4VQje8qeoLhhw8CUaUPhAMODbWgrtFBploJ56sPYCAXqmqklEMtlUjHe1OIhn3TXiDfCplXZ1LKrSZtDKQ0+u18Fugf7XzLsT0f9sRK+XVg5P6e6GewWcHMLZwrOud5DexteztCVd6lSPlrwKM636MAnFkboBqhpJsEwKe4DBXQJxbIh6smkVxN3Q6QAMxOe4IkTkyNN+fiCa1ISyqOLLysxD2A/lV77XLye8DdpKaIMmUwWcLMDja3zQMBz9LUhIs+4Cx+HmB2Pqw8rCzPh+FIXnDgy+N0WfBE+NSE8V4x5XRHUme60Wo7iOOJ//OcStJ4QkHqRQQ+sX1XcS8bfkP7ApBfxQrgvFndRZa5yfv1t+Nono27qXBoh98jxbXjvv+E0vA862vCZoWzGRefnKbGH0CZKAyBT6BLjpZgYtcZg6dWgKbIGGtMRyrYC1YA1cRa6gz1o2oR5tnDeXdhaMS9JRZ071b7rlmZR84073bHr9qtauCqOtIFOQiXAHKdW7fWqxd/CjcBM8VoRiuC5E7ddmgVf1GuSbfj3SEK5Ua/PP83rij1fvxRtn4p6ulsodGs0Zl7waDbu9LyHM5JsZs1rU6jCWpalpXBaML9WuEab1UTkA2B17BK8KpJxNtRRUcFTF62wZM8NqqNIDvVzMAeQ4jZ8lbzDHoQEYqUVCup6DXkur7goTCcP3RVVh5oR2nNp0ZpxM4UyoNIL2YlTv571Qavfxsnrmj6VZnfxp+Sk1/8NYjOL5dtj6emV8N+eiro6x9a6iGx2Gs6Pp3CHVoaGWCM+2OAoIYRQDASWDC1kUWARZFF4Hxde7+nNh+s/314K1QapOjTZUGhgxhXhNHA9xiZ8iioKGXWRFqCNSXMN7RVXcAht2iPamsGidCW53y6IZWnRFqHv83NcvOaQFeQxXdZDrr4P/bSLewn3D/R0O9Q3jcPbPbFETLbcPGeLXsPU9ycSiGIHxUIZ6ufwe6iOp/ApcLiEAFncvKvXPT1Xn3/F7Q7n5MgFHEJPOF6SKPgJ91bUz5ZQ5/LyFyQNJ9uAIi/EZ7RYbi5hJ/jUqYplKeJqCV6vkdFuj2UD4fSKwG2M7pSYzJ2AvfGZdsPzoB7OT+spTNMU232TM2Uoe10cULDsVFQDcgDtA9CCHAOpi29k2DQaH4DdLbDUUUZBSIoCu20lKABD57FTzRLqpis9z4buaU5WC0LasRqtQI+WTy9EJElacHsLgxGiqEXvZpMs36Vg9dE3BJ2wvxPMLmKzz4K6dUJyj0UPmleEwjPXVyXOwM5CRR5wPslldOUdWCRQ+bTqsvA7RkZw5dAumH7klKcxzosDLILrFj0pHaLOFb/TEqCr32mKqzVyuH5NIRbMWB2/8NPEsQxxXl/PTdy4tRLGZ+6DCZ7e/P7+9xvg7Q80/8YXbP0sqHco2J0Q0BbJGr231nsL2IXpsMhQ7yRqG+EV6MoH55XoZafHsnE7XwYPK4HEROXdVuzCCnAlum42vHQQlUQh6o4S7LfENg5L+QLqRlEX3G/Ez8lbXVp+h1qL0BxzaqkY7sKAn9/6H5dfRvV6fXQfTPZsTqLu+hZaPwvqbaG84/PLYA2UiLE9QEXoF1CvgE9F+whDaiDTx7oWVrbfyax+XH8f8AKU2qIZ1qnJQT7aoxjdB9RrK1FnTPHlwxJyUz0/IRxuShNT/SnTEyZeFoYypYWk2BzjtZ76nYuPtKv/8j8urwHnxjsf5sWbOlnxmHZ9FtTJsE0sTyjRKuXWnh+FSngVddormESBsZ34iHBMqLxTohWN60DsgdJB+WkPAFnoilQoym1AfRpFJkRd/ZMlSsgjzuhEYEbFAULRJ0Qm27SK5LEcdeTgHNOmSpj+Rghx3ylffKEp1//19/iSPpJifw7UhVqXQ0mChOhaf5AQFC6atWlEHZkQInPAR2CrsXP4y7FCjXkQkIagDsZ0LIz3uDABRB3HCnKguBr1iPAXzyPxvFR0RWl7JGXvjyyh+ISeaP8mw86EReOTkGcNf0/fCIP+uO7P9ow+N75B80xxDerm9qjbJPQkvzakNil9Z20Vu4p6IQF10Jlg6JFeVVE/HkEaIkjfoaOXjDraYutQ55ErccpCBqion0RQF6og2aAR5ly4Zu2cEtRmra5YsD8E6v6n30PpVr/zPl/81SD1Bs3XoS5sj21QJ9UdsW+AKmTmxCMhsZWAESXyuintUeB1Wq+5KuGvgNfLcV6PSHjk9XUSnkcKIMZCnalfiUpPgbqReCEGmXpcqsavdE0lTu8MSEqsRv2PowTUmyJoppb/7hZ1iiEnRds71Y1RR+NateYUvd5S9DqMSk06198GHrs90cMlbQ62sOZWoh75Skxnbsbruiwf7fJACfnqVL2ron45Cqfr6/mz6yjqFClkKupxjHfB6+cJ0xPJOGdF0DwkAMdQPLdaVvobHbcNyt1oQywVG74BOQiI42BQJ62kU8GiJ88N2ILPnoB6RPKv0us8Sa/boUOrPG+nakqGByX0V4G6b7TffhYbveFHYUPXDfV6U7jSau8UQGQ1gmIL1HsP6nWMNW5weLQgIwu+l3ALqnK0FuotaABvJdjrGKMGG9mBFmBQEnwVcBUQ9c50TZTmyainqLpjmmTj0ipGV8VyU9Mw1i92tvDc7vyPb6QJf5Us/BGm3URINKJzJwgoL2yPukUGTnzt/PmR28rX2vBdORKDQVV6i5IzQUsPEzMX1wL2+vVSHlILxAZ4ziRp0zpocugXCpceiMg+GXVxXtRw41NNEa6tmDNvp1NMpG1MqCtaCNSv/Y+n/4j6ucbxzeIDsTr566ukb0+jOW2POp0E1xRng1ZvvMLTSSA1+3ICVXNUTgXR8xl0CtFakv5nb3ER6iI4Bdq6iP0G0zCQqyCSTlZUfkUJ1fao08UqIrMvUZMEoMYT1J7tFojd9XPo7VNDYefF1/nHjzDpxruvpOYb3zH9AlZNMEtFu5CJpQ93gHpaFNzG51ehaPQG6ZfA7g4zrSYsGb4W7xiAT8BHnOykxeU8mLbIRgFkDkgGlHcYVcHyDAPtnLWZ1iejbok4vB6buShR1pOUom8CC/EJsuCNUOwQhTpaXCxvUMYJ265BqdaQ1ZQQuU0jCmsAtkBdJIyiPqxf40ihrIRodJTg5AttxDxqY+BCW6lypMwGKY3bwIodIacftaGGxZCT8QwrIDC6QBIFVJ0TO0+xPepS3CYXmXpeeFYtacEsaRBYECxgOxNKrHEvqgjOvqtFVHNRTSOipUrYOE8Bs/Ct2+TcxkIgRW/5dUUmeYOrISsgezFB3cY4Kkwb1TwJ5jImzkjGBx7rHAVcBrxeZHVQFSKFTictcKDnwUseqKB6OuoVga0+U0RJWHnDB+EfrIFUGtREC5m02OLfMBx3L8phL+4V9+W7SLwL6UuyIuhTMKchhr5Nfr0tKkkM9YRxmHjnG9TJWiDF8X4gDAOYuFuyeHcY9I/CiuOiXPhFw405cEEazsjwqeL4a7jrYWtpHF8JdmE8R7AD1MPsqQd7Wzxt9msk/5gengmzhw4zJ9QnxbZEHmIpme1XlxeI742ShAgL58ITgXxIXWZ6xIF8JrDYqpYmJebndMMsYTMsM2ObnIDFa6FaVMMMYhqLIdDNprhDFieQC86QnPpmbOMqGEsWrwk2+1g2Z8pMg6iRzGgr6Th5LDtAPRMebOC5lJvuNJuddl6qK9VDVrAnvoDSZ/3gMGWFivpFPHjxIfRPG/U/3/+9XC7//nY9klldGj25Vf5ZkHw602xWsmFSzwhlyjao01GDYCb+/DL+/LJVqUR0o2sh0SlHYxsK52je1omhLDamfBjredts8aMOqFvtFGbnyFHrQKfCWZkpVZdw45UeP3a2C9SP8tIC6Gah2htWa3pYIyv9gJWNy8/5LNXvl7tCRAr7WArNBDWyo/mooZx/atxKo3HDDaebs2FvWDBF9Ec+qbEV6nQ1YNCBYRbO/flxqQY4emIrmUoKH6JFQ9IXtAWj0LJNt4QatZ579N5H/U9PilFIk4C0+jha3Ep4MzHJk5QiTyTaCepHE7m4knO/XjyMvEmHM+0yrR/jBvf+R62kKq1LNeEQJakw+igQHdKLdfmkqmfvhCPcDnW7J00PXiPPz9jsUrc08i9+hB1P8gjvsRB+At0S6p9xPPpWDyIYWTpdKS6irNBBWJxVGcvq0XY4B9shrn52g3pzKMMeIRamZbJFntiES8daF3fHD8DubXmFJOkb7XMmqbPtUBdXridSa8Pf2miqih0WUiwvZuqFXZgZUnRocvS7j/pb4bEIXwIzX0yjbVdUdpKLfkI8gLQb1L0xJp2Gg46HYcPmefR8BXSlbMfFm8ZD3B65vqCUeIQq6kxtibpnVa86GMZa8eBNMmEkkSIoWF7ioFlGdi0neWyfwEkcvXd0eRwEKSCrzsLY0xgXna4pyONZadxXEAmKx2N3hrrvgiXiybiSDks8EMf0yD1Jq7jd3w2NunqaWeQBIn2qVavbou4J5MRtzZgTPd27kqw+gIKR1CO6UjZg7oqIV4V+llvwM9L6MEg+Nv4IsurcDAu5MnS2mvKiIPfoEnLMG/HI4gZD2RHq3s6axpaf8Vg8yx6akSPPjGuxzPXNVQK7N47f+bZ849Op2nici4tfXlR17faoe6+Jby+mDR7xewtp4G76iQY8yB/E0cSZWeU3IexxN6c7Vftm7qefrInDcwM5upqfUkC45t/FAhW7/unzgDAQlJA+8O+q4AEZUdRb8FyfRlDXOP4hGtxND6fymUFPFJm1XtylGQ80GXfOagnG0OmHKO6NxtWPi8V7H/b7yJUVWd9wV16c67pqkxTDQedC1HEePHI/PFCCBx6bHzcHqfXRmZDwFlmRFkYffdoMDn5Bp9O+Ijqa/V5h2PRLyeqX9mTQK6nvyw7otz9qeQuvnuczBLLEIM2aMERrPCgENItMII/PC5HdUCoQxYsospNCzjdw/eU12LR6kpiSqJx0i74F77fSc4VUck3x8sf3UR0OtPrHfUbXP/w04+Kb77m/icBuj89rmqFDl4ZWO48dBh3ToMPb17L0qCY1bnapXRKHwPzgNY43v/Ij73TvA+pUVkr3OpfzxZBnY19Ku/bynYf60mq3Y8rEFbnmaQn9I47Cgqq2Ew/cZtJIHbXLJj1Pr3qe1Fs6X+6dd7vd6jBVyq4MXXTy40nVb9Ur51cv3Nnl+y/XV/PR/Or6/v0leumLb35w8jLa1s6WTobQ5UnJje9HMcvw935seiTvOkvMLrkgyp9f8JrhyXj1/FZRG2LX5KZaGGcrkooyVlTV++mX+m3in9IUlOJFyHgL1wVLG57pZ93sTCVd6TTX2Dh2J2i1pq+L2+XyZrm8lQ24y/px490y3tZqbtTl1uSNvLJ+fslfxcslKZSXVf1dZ5ZQt+GTn36qnyb/LUMHFEj3IKvju8KDaXtOPuzXZ+vbvUCCKgdhYNmKR+MkXdgVkF8mWl/Vp614T+HV8xi7TbpjcC/p0tP3/6zY+i+bOl28aBAZ0JWiAK0Eyxfp9P4B1I+OJtJFSeLqecjdavyVsPpRAHtQIL9/NMbKd4wgSdkj7YEi2+AQ0AO9lsL7ISiCk25BmG6jy1P2hG5GjY8xi24fCH/SSaTBKFXMig+enflRb3x6qFtyAsIydvwBEOdV/R6358GuMGpfOJ0As9PlguJi54drcd43ovmHCKHjzij0gdcPGEnndfaYPNjn+6ja8RJ3cTAhyEImuekKeaj/+3CLth+icUie4zl0ltvBD7u/KLq5Uq6e2xsag4slCoqbQ7b6Omaib8f1f9Y08Rx3Y0b2INRoaJvnCPaGlp/q0RjdPpC4DoKiJ53ZYC1Hfh0FB/0epMxQHF3NotdWe22s7tHt6Pj3Xz2GJxCqXC5+QzW9PpZ/Od/AZ2mSJdfEEiUn8ZbCfafb0TzptwJeOmFoRn/Eb27dXD3GZcEDR8aGF9zuG93OP++hIW/TT29vcEkd0vLqY0IMegWV8OdfXu1vep19ur9Y3+qlUZYOZG388+i3nz9uvL2zsV8BfXV09u7H/ll0dOeP+PWPtXT2+eOm/koF72xnr1S+B3R7vYcWXacAtU0bF+JcfP+4ad/pLtrv7tPGth90++8eWnTBT/usd9MFLb4/kHyJUJBx3+Tg3V7T2T/7Z9FZpRxz1v0+o0z/91DyJUKdIWOrbhl/PXT2x/7F6KyUc/6YxMiX/z2isT1xqq8ddE/rXe6fRdfMP8rY+vJw8iVC1vj1ZNVX0+n+yfhH0oc1yZf/Ju0fsz+O3qxLvhzoFdLd2uTLgV4ffY3/SO2BXj1d7mFQ4kDb0s3myZcDvRpa7mGS6UDb0u1rd1IOlED7F308kE//DzmfEAOXSd4QAAAAAElFTkSuQmCC;" vertex="1" parent="1">
          <mxGeometry x="178.5" y="70" width="121" height="24.15" as="geometry" />
        </mxCell>
        <mxCell id="qdnZULfPCPuXgq32BraW-33" value="" style="group" vertex="1" connectable="0" parent="1">
          <mxGeometry x="-143.53" y="380" width="480.8571428571429" height="190" as="geometry" />
        </mxCell>
        <mxCell id="qdnZULfPCPuXgq32BraW-35" value="" style="group" vertex="1" connectable="0" parent="qdnZULfPCPuXgq32BraW-33">
          <mxGeometry width="480.8571428571429" height="190" as="geometry" />
        </mxCell>
        <mxCell id="qdnZULfPCPuXgq32BraW-31" value="" style="rounded=1;whiteSpace=wrap;html=1;labelBorderColor=none;fontFamily=Lucida Console;fontSize=14;fillColor=#67AB9F;strokeColor=#10739e;" vertex="1" parent="qdnZULfPCPuXgq32BraW-35">
          <mxGeometry width="480" height="190" as="geometry" />
        </mxCell>
        <mxCell id="qdnZULfPCPuXgq32BraW-1" value="" style="group" vertex="1" connectable="0" parent="qdnZULfPCPuXgq32BraW-35">
          <mxGeometry x="290" width="190.85714285714286" height="150" as="geometry" />
        </mxCell>
        <mxCell id="qdnZULfPCPuXgq32BraW-5" value="&lt;font face=&quot;Lucida Console&quot;&gt;&lt;font color=&quot;#000000&quot; style=&quot;font-size: 16px;&quot;&gt;&lt;b&gt;Arduino Uno + Ethernet&lt;br&gt;192.168.1.100&lt;br&gt;&lt;/b&gt;&lt;/font&gt;&lt;b&gt;&lt;font color=&quot;#000000&quot; style=&quot;font-size: 16px;&quot;&gt;de:ad:be:ef:fe:ed&lt;/font&gt;&lt;/b&gt;&lt;/font&gt;&lt;font color=&quot;#000000&quot; style=&quot;font-size: 16px;&quot;&gt;&lt;b&gt;&lt;br&gt;&lt;/b&gt;&lt;/font&gt;" style="text;html=1;align=center;verticalAlign=middle;resizable=0;points=[];autosize=1;strokeColor=none;fillColor=none;fontColor=#FF8000;" vertex="1" parent="qdnZULfPCPuXgq32BraW-1">
          <mxGeometry x="-49.14285714285714" y="80" width="240" height="70" as="geometry" />
        </mxCell>
        <mxCell id="qdnZULfPCPuXgq32BraW-19" value="" style="group" vertex="1" connectable="0" parent="qdnZULfPCPuXgq32BraW-1">
          <mxGeometry x="-50.56999999999999" width="175.8842857142857" height="108" as="geometry" />
        </mxCell>
        <mxCell id="qdnZULfPCPuXgq32BraW-2" value="" style="group" vertex="1" connectable="0" parent="qdnZULfPCPuXgq32BraW-19">
          <mxGeometry x="69.99857142857142" width="105.88571428571429" height="108" as="geometry" />
        </mxCell>
        <mxCell id="qdnZULfPCPuXgq32BraW-3" value="&lt;span style=&quot;font-size: 18px; background-color: rgb(0, 0, 0);&quot;&gt;&lt;font color=&quot;#ff8000&quot;&gt;&lt;br&gt;&lt;/font&gt;&lt;/span&gt;" style="shape=image;html=1;verticalAlign=top;verticalLabelPosition=bottom;labelBackgroundColor=#ffffff;imageAspect=0;aspect=fixed;image=https://cdn2.iconfinder.com/data/icons/electronic-13/480/3-electronic-arduino-chipset-icon-2-128.png" vertex="1" parent="qdnZULfPCPuXgq32BraW-2">
          <mxGeometry width="104.91428571428571" height="104.91428571428571" as="geometry" />
        </mxCell>
        <mxCell id="qdnZULfPCPuXgq32BraW-4" value="" style="dashed=0;outlineConnect=0;html=1;align=center;labelPosition=center;verticalLabelPosition=bottom;verticalAlign=top;shape=mxgraph.weblogos.arduino;fillColor=#36868D;strokeColor=none" vertex="1" parent="qdnZULfPCPuXgq32BraW-2">
          <mxGeometry x="33.33745535714287" y="43.453125" width="39.21080357142856" height="18.5625" as="geometry" />
        </mxCell>
        <mxCell id="qdnZULfPCPuXgq32BraW-14" value="MQTT Publisher and Subscriber" style="text;html=1;strokeColor=#82b366;fillColor=#d5e8d4;align=center;verticalAlign=middle;whiteSpace=wrap;overflow=hidden;fontFamily=Lucida Console;" vertex="1" parent="qdnZULfPCPuXgq32BraW-19">
          <mxGeometry y="10" width="80" height="70" as="geometry" />
        </mxCell>
        <mxCell id="qdnZULfPCPuXgq32BraW-28" value="" style="shape=image;verticalLabelPosition=bottom;labelBackgroundColor=default;verticalAlign=top;aspect=fixed;imageAspect=0;image=data:image/png,iVBORw0KGgoAAAANSUhEUgAAAT4AAACfCAMAAABX0UX9AAABX1BMVEX////zS33N1+r7ztjyPHX/5tU1cqWhgEPV3e2sjFYvNj2qRET4+fzK1OnK1uMgaaAACBgdJi8lLTUUHym1t7nm5+n09PUhKjLR09apq60AAADCxcldYWbP0NLs7e6kLy/z6ena29xESk+coaikqa99gYSRl5/FyMwAEx+6vcKvs7kOGyVzd3oAABAAABXe4OKMj5JobHCYnaVOU1mDipM5QEb//vdudoF8g43kUIIbdKc/a5JWU1BKazZBeRaeejJ7iqqbpr3/8N61qZfWupqzlGLpzrX128bUuqnAonfYvJzBrbvVy8VzhKW/xtSokGSumni8tq+wn4OZdCfDqpnawbCllIh8b2ZqX1dDPDCmlYmgmpbLw76UgHN0cG1HQ0BYSkB+Yyx9ZT2Pioa1e4OuWFy5jJa/pLC3YF2oSEzeq6DBf3rGvMy7kZy9ra3KlJStaWmkKCZGU2KQnLfM18ZiG1elAAATFklEQVR4nO2djV/bSHrHp9u6BKHkbEsaywhNMpasV4PkN+zrpYUQwJBj2cs2bNLN7qbtZXdv2971dnP//6fPM/IrGA5jjDk6vwRblmZG0tfP88yMZiQTIiUlJSUlJSUlJSUlJSUlJSUlJSUlJSUlJSX1/0qq8ej6Yss+2vumR48/m0GPP1OXfcD3SrPRQ4CS30hsVnqgZR/zPdKj2ek9lvFvqBsY32ePZtpDrXqNRLxuwWs9nf0E6snseW5N6lR8vvXS/+J3T3zrNvAV2tdIZK+X4XV9Y+YT0IOZs9yipuB7vbqys4LaWXn9Wp8fX/Fa+PKILz87vqYzc5Zb1EV8LzN2GcCd1/ccn7G+1EB8Ad/vxuhdBvBG+IyEQgMdGj2W7g82sVC3smbQBD5q6eGACrN0i2ZrITPVudFfn72ns9vrbeocPn3lgnZe3gq+6noNI5zF4/WtfCUDUs1vbm7GyG0CXzne3NzKZ7VICkm2ApHEX7etzfW6CJKQVBNvsTU/gzk0ie/LnYv4Vr68DXzpFtAjZpAWygavxfiB1PM1bvgVAW4MX3mraRtmXfArb9VFEo5JAicuJyxoYl4/7+GbVbg9FDfRBL6XE/SOV1Yz87vAb3Z83lYdF00tMPG9kleRgIBIlICO41ODiljdzMPqkoKLXKC0tcCGt3qAblvNi/bKxg1aOrepcXz+kB5wWz3YPzh+tbKP/M6Hv5nxOYGgR8w4C1UpnnwtyFps5UAfx6fnM38U7zSLjMJa/Syzn8e6tiQYs+VWHJP4VvvwDnaO93cO9vZzB3vHuQNY+8V8+Jp6oHGxaOYb4t1Bb6xk0Qs9ehxfGjuhruthKiJe4lRr1VoJ8dlBlllpI0MRAb3lVhwT+Aauu3OQO+4dHudyuR7+9XZWdk7nwqdoG/3a18xnrbQG4lOK2XYeVCfwlRShtgJG6Wwq1TStFgS+DBnxIHM1EGZXCG+Hwo01hq8f6TJyY9rfOV/5zoivuEHKWUU6ga/S7y/Yk9bn5Ee9sGRTOL0aj+MzthxSzPx4a76Tn18jfOFOFvX2c+f1aueLufBh+G+KynMCX1XUBGBugTWOz9/KKLGQQ/zTcdEOxvGRjXayKdbfpIt8uxrh+1IYX27vAr1cbnU+fBjljRghTuDjWyL8cw23jDVcikXhmPV1Ezq0AlClNIEvjOsxNhzZ+jKvFggN8T3JqtzDKfRyr1bnwVcScU+4r7nVx7eFtuhstR09jUVbxhY2t4X4zKCQ6uXKFkREqmlV3SlU2+1wZJYAuCR82mneEoSb6xy+V9Po5XL/+mRe6wOXA0xmkOFzAlETh+38ZrAhTMgW9WwgQhrfCDbzbeGeSSXYBAtMNyuDJKhqINo2ij736c+rIT5LhL7jC+TO3rx5c7Qyj/VdJWbQaaupwUYpxOtE+05Zcl9jpCG+11nN0Wd2dHTWE0tvenugg0cLwncT0eogCC5fQ3xZq084bw+ZAULx8tW3b9+9+7fWo3uDbzPYqi1z/xMaWZ9o9GU1x9nXb5+/e/fuw9vn6++/OXn2bJtv3B98aWovc/eTGjVcVvqxb6/34btvnj072d5+3st9+3772fr29knnHjnvfdIIn/De3l7u7buj77YR2rO34LwfYHF7+5uWxDdVI3xPEN/+Vx/O9vaA2TbZ5oAv9++/f19+/92HSOKbqslLBv/xn28A2d7Xz9///rvnz89Eu+XozVFv70Tim6rxC1ZHh0fHWZ/t7KzfbsnljsTr4WOJb5rG8SW93MFYg7l3JsCJyvjwySLw8XL5Gh0H5pQvaecZYotZLi/tutU4vkdnuePeGL+zI7DCM2GPh6eLwKcH2jWud5r5gjJ9i53HIfhyoNWvLEDV24u6tjAx1nGW6x0fji4a7OV6vf3j48OFOa9eKF594kKmplwyUmxrSgUH5gpXtqNVrRDcBb7HJ4d7B2P93sPj/YNVEFjkYqqO28FnV9MrO3G0pMR3Yn3J4eEx8jrES6a91ZXVvnq5o3nxMT7lDDJ8Y5uSaakyfJRzcj5Zhm8kPhhDn9xlUdHG19+mJsd5z872+8ReHa6uguO+OgSiK/u51ZvjK6+v66QWaHEbz7+dX8fagq0H6zTDVx9sIk4h1uIYL5DWtjbFddIgWOcZvmpeiwvZEJxIVhCDw5nzrmejoNUg1gLFGuwSyg3aDMdBFUXRNq8zzWt2TeJLzg6HJreyf/Tm5dffftU7Xj0+3PFvjq9QTOtBoagoMdhAUykIfLFSEPhqo00prIs1BeuBarEkRsHhvAW+ZpovlBQlj7M76ppSgixabYgPSoH1lUIxjksKjnpCuWkNy8VLjW0ceipqd4HvcS43oLe6L9rMvdye8Oc5rK8AEBwrLSjoqefwKUphsIlqSiEkdqytJxfwKVpqNQAD1rOQLLWqBSWwJ/ClYMmMws60rNxiOawXldgkaRU+VKuLubR6forQoyE+UQP3MAaCXs6FT8PL8U4BiZ3HF/N+EgqrNPA12wrZBXwij69h6rZSwivW1TiujuNToQjMUS9CWiwX415bET5eFMa9EF2YYfXlkF8vd7i6ctATxjfHxXpgI8YkaIzndB6fCP1geIAJrKtYa4jpVOfxZSPCQEOnQZ8FpXQcH5poHVRRSg0sV+wSimncYc2LMofBb3VY9a6cm6Uxa+zLmmWBotkXYl/WcCkpmk+soFQslgo4pHQeX9Zw2SgWyobI2NcYPgv8NQZpWt4TMRW3Z8XcKb5Hrw5Wz+vkfJpZ9lAeMIqRRVMRMwOMAb6s11FAsoSV622tqARh32xEk2MMH6JHF5+GDzy7zW0htlR8ucPeeXznZ9/P6rxiZMcvYGxrFkU40gt95xUBCzDEjPIEvJJuFIspnHcRa0qu9fFpePpMQ8gQCEXbpNlMx/EhViyKJsk0fHcW+37Ecd0JAzw4/mxOfKUNg5jQfIBzrUErJSE2xLkMH27ibaxT7fU4UDFBKcVqpmSTpD2wvmKFk6QJn1RSLYGZEbtYjMsTNS98L1iltOPN8jl8alEplcli7uWZxPc/H9d+zvprBwcrg/iX2/t+7fuPP/z4+Mb46kocQGjH0dkwhngW5KvFQezrb4KACLBK9UpRyZskyWOqACqCDF9lIwjArTUIixTbfJAFp36M40sCpVCpQxOoTc7hA7JKaWvx7b7TPz9de/qHYY93/xhq3Vc9aLv8tAZ6+vHGsa/K40KpFIjaoB6XSvEGKWl5wJfPl7mGm7CPYVTiUqFQEJN106BU0tqQeBPwbQY1qmiQSsRQTAZFNLGRs6lhSzAvNphFDXIHGxTXxCJpLRAF+9DmXnyz+cenAOm/ps1xWRN6+vim+CA0ldNGv88apilYoenDi2FZjNBy6vU32U6a6lnFYMMSmJQF7RhqWRD69DQdzCj3vbQhRtuY5dtYim8OSnZESYM13LdEnZE4o8y3qyE+NL21tf+eRi/X+4Pg9/Hm+B6sBkHvqSD008k0fLmcYPv0tzfCp5UeMD5slPz2+wwe6E/fTKNn+T8I9/1R0JvtjtSwuez52wvVOLy1tT9a1gV4J6FlWVn4+yPSkyNFY3r2dIze2k+WFU468ImF+lO/+vhB0jsn+r9rT4f6+c9WqIcngxGj3gl8Alkff+5v/yhv5r2gZ2OimcR6OtRw65KPVEpKSkpKSkpKSuphKhmN0zCDjg/aiBGMROXEnJpRDel4WmOiv2OOPvVz84kmPbWgswS52CXDHOI4jNAnWblqVkh2eLhs0LGjWua9c543XLR9Ok6qBX88VG3iXciEiibT+hOQW8Pnt9BGv/AJfKzBDANymZdcJ8V9J55htoiF5arZ3Q5JJI4Yd87Gjqo1vYy7kBFFwgAir0FMm4UkajgAzfFI2HHhgEMaES9q2cQNbcPzEngPI1hNko5HQ8jEQ0gWdiIzgjxEbwhupt9QiQlbHM9yiIOnHFHLajRwR5iCQSZidVwOuVSC5SS6Q9yoZRDueYaF+7YBlkF8LBcOwvIaqhER1wuhEKPrUTiqhNieR/3O8p614zJxJmZEDNO0jZBHqhlyB85dfL2AzyVd/IKBHKfMIy00Ghc8yqUcMrlcHLsHp0l8G3NH4iO3iO0S3yKJgwVBFgreGnI7FDbEuq6DZm26xLQMV+Wu4RG1Q1TYAaWtzLSshmeKck3qMFdNXAaHR1jf+jq4G1OFNdO9407UCUM4DhJi/EB8FlhXAi4F9iUcCPF5eLhgTq4bevjB53jAwAMyeVy4n3Be7vuQm4PDQqldYtsELFsd4UsgEdq617e+zHmT0HQgF+xQBbvyaCuEkIf7Rq9oUSjX9KnLG5AGDo+POy8cTRRFS3ReM6Q0xAGdBrEs0zciBoZnm2A0+ghfh9EuAR/rEp7ZRReRuQwy+WEWvbpgemBHmBs+hzajjgH4wLjAebuq2UV8HPAlLgktnFBOVBXxWbgLCAHWAB9an0ta+CgUV4X9Zvgc6kFCQ4dd2nhcEc/wQWyExEu70IRTfijOy+AunEjCwITckBicwBK6ITOpTywfnBUSJS7QxsR4csSnIm1Wc5shvEM2XEOImOhh4xbfTXzw8MSC5KaBiU0XpyFQF0R4lO0pgVzwRnCkGTZFVOwbksJ+uUGMRAUjdXVxUC7P8uOBhBAgIBTwaFn4bqTWch+tJCUlJSUl9ZAkHgzJp18lmJZcvIy1HBLs42J/y2w0TKPRaDiR03CW+gjTBUol2PKDfyq+wOdEhUVs+yLG/ogoI1kqNXvknEr7m1RVxSYrgxeVZcUQ3knEFQMTiLl+1uNvPNgB1G4EzVfPTUwvgkYxiaBjmbT0hk0aIXTGHWwF05aOzXvoWYSO3jJYK3JC6MA1bLXlml1IYHX9xIs8LAaMDroZ+Cea1t2Hjq+V9ZPwPTJaom+KvVrbd/0o1H20MaPBaNZvDU1CGxTMqsXwhbayDqjoPEG32UNKph9RD7pfXdzw4PHB6WN/Mjt/7AEJfLYd+obBiGFh156a4kpBV1xY8KBHSjy8atISILNC4M3i4sqeaaldizSIgzPJvYeOr+P7me1E0BU3OgZxmeWaLZ963OFRaHt42ZK3iONbHRI2TM9kXTsE37T1SHTx8UImUII8mSWaFnHwuhPt+maXEUtsp/AdLfc8F6QGdtWx15+gmcCfoZKEU0aozQY1MMMrxSY1wPqgA8+wnw+fE5FPXJ+Gd6NfDKHiMj0ucqBHGM0+8Yf5OxgzPWfAxktw9NrzkNVo2U/flJKSkpKSkpKSkpKSkpKSkpKSkpK6M5mue+0xYXLJJPO/ZVljQ9w0m79tX39cohUZRjSc3SkeD8k4ScTDli7K+GVsIr0N6acX6nY5cbqDjcZlye6DopB7tD9fL2mGTTg/q3RtI8meUWL2J88zBScTbDRJVfcrU+4WoC0+mgiaFiHpJaU6Pmk1+pPpa+llyW5bKpt9OEsMQPbHJEyDwIGr9fJ1f/QAB3pVtT/blJC6DfjKfh0My7j4fAn+i+sT3/2l/5twTg0yEH3qwAkW2zdpnONfJ3zxkzySF7ug0xlz2Z2WK6akCG3AF11l5etaH472duE8XeGTepg4hNWEsdSnfJFRNHjBPQEUUvenP8XD7XZGvpuSenKNJ/jOqdPPkd7u559mymV0E+bZ/Rk8cMqOb9ZYet1HYTK8xcIQ47iQu8JCcDTTaFJiTH02DBjpwKgaZbaRkHblMjsf3WuQAL7F/0hy8vnp6acXL14kuy9mydbCCN8Rk93B73TiWEm5fP0fWOsKI2OCCSuX0w2ql8ttkzhTsbSsjtXHZ5XLFZ00ySW/puV2R087xthXW/R9V592Hw0WZtkV679kvpbWxdesX7sE2sFfdOsMPDURZluF/9OCsNqxiNUZDpen+D+ZbletxjAmGmVMueAnHbHd3f5xnc4c/uaR6rZaC7gtQL3ju/ye7H4aLs3kvVKoZHe3v3Qq8c0uurv7JFv6dKfO+1D04vTFC2hCnH7a3X2YU8EWK/o5ewKVx4vZG84jqW40rAYYTj6zBzOkzOt8Je4MuzJcl6vXaZ1HUZRVI3Sxd4IZn15QxDeH6+LtzwaDwzUjI2owkxsh3ufLVO6F2DTkfhJd8Yxg0XvhETMhiwEJwyump7mUJJanWiFJTEO/opOI3yeUyUzTZwmNFnj14BSs73SeRyA72UtEcWotNyI4O4OGPFFDX43UxHRI46oWhUscysQt35w3WCMJr+qCRy6nPjF9/DftZ0CG6aII7yGHg4lcErF7fPGFuCrh0I0N8ZZ8wGdSK1RJxBMaWqoL3hMRdtW9ny4xfJ+ZYURM04XcxhWmamFPz09CgMdocoXb4w35PsHiPBciyr2+PwRjnx+Bo5JIBfujvhW6THVCvE3adYlOwuiKCARGEiVhZBtuZEAp1HUvtz5IA107ww1DkyXRFfjgCyR6ZMLB2NQyo7+tO3elpKSkpKSkpKSkpKSkpKQevP5eaqqe/DXZtv2Xv5B/kJqmX//qr+g3Hz5U/vlfyN9JTdOv/+kfr9Zvnj9vSnyXSeKbSxLfXJL45tI18f0fSFS3H1bEC5cAAAAASUVORK5CYII=;" vertex="1" parent="qdnZULfPCPuXgq32BraW-35">
          <mxGeometry x="20" y="41" width="218" height="109" as="geometry" />
        </mxCell>
        <mxCell id="qdnZULfPCPuXgq32BraW-29" value="Client-ID: ArduinoStanzaSamueleMQTT" style="text;html=1;strokeColor=#b46504;fillColor=#fad7ac;align=center;verticalAlign=middle;whiteSpace=wrap;rounded=0;labelBorderColor=none;fontSize=14;fontFamily=Lucida Console;" vertex="1" parent="qdnZULfPCPuXgq32BraW-35">
          <mxGeometry x="250" y="150" width="220" height="30" as="geometry" />
        </mxCell>
        <mxCell id="qdnZULfPCPuXgq32BraW-37" value="" style="group" vertex="1" connectable="0" parent="1">
          <mxGeometry x="210.00411787090118" y="300.00090753018713" width="9.996811212479997" height="49.996299211145356" as="geometry" />
        </mxCell>
        <mxCell id="qdnZULfPCPuXgq32BraW-36" value="&quot;Last Will and Testament&quot; on topic:&lt;br style=&quot;font-size: 14px;&quot;&gt;&amp;nbsp;&lt;i style=&quot;font-size: 14px;&quot;&gt;LGSAMROOM01/network&lt;/i&gt;" style="edgeLabel;html=1;align=center;verticalAlign=middle;resizable=0;points=[];fontSize=14;labelBorderColor=default;fontFamily=Lucida Console;" vertex="1" connectable="0" parent="qdnZULfPCPuXgq32BraW-37">
          <mxGeometry y="49.996299211145356" as="geometry" />
        </mxCell>
        <mxCell id="qdnZULfPCPuXgq32BraW-38" value="" style="group" vertex="1" connectable="0" parent="qdnZULfPCPuXgq32BraW-37">
          <mxGeometry x="9.996811212479997" as="geometry" />
        </mxCell>
        <mxCell id="qdnZULfPCPuXgq32BraW-15" value="" style="endArrow=classic;html=1;rounded=0;exitX=0.406;exitY=0;exitDx=0;exitDy=0;exitPerimeter=0;" edge="1" parent="qdnZULfPCPuXgq32BraW-38" source="qdnZULfPCPuXgq32BraW-3" target="qdnZULfPCPuXgq32BraW-7">
          <mxGeometry width="50" height="50" relative="1" as="geometry">
            <mxPoint x="369.99907091661885" y="29.999092469812865" as="sourcePoint" />
            <mxPoint x="419.99907091661885" y="-20.000907530187135" as="targetPoint" />
          </mxGeometry>
        </mxCell>
        <mxCell id="qdnZULfPCPuXgq32BraW-17" value="Subscribe on topic:&lt;br style=&quot;font-size: 14px;&quot;&gt;&amp;nbsp;&lt;i style=&quot;font-size: 14px;&quot;&gt;LGSAMROOM01/cmd&lt;/i&gt;" style="edgeLabel;html=1;align=center;verticalAlign=middle;resizable=0;points=[];fontSize=14;labelBorderColor=default;fontFamily=Lucida Console;" vertex="1" connectable="0" parent="qdnZULfPCPuXgq32BraW-15">
          <mxGeometry x="-0.4806" y="-1" relative="1" as="geometry">
            <mxPoint x="14" y="-70" as="offset" />
          </mxGeometry>
        </mxCell>
        <mxCell id="qdnZULfPCPuXgq32BraW-24" value="Publish on topic:&lt;br style=&quot;font-size: 14px;&quot;&gt;&amp;nbsp;&lt;i style=&quot;font-size: 14px;&quot;&gt;LGSAMROOM01/statusRLY1&lt;/i&gt;" style="edgeLabel;html=1;align=center;verticalAlign=middle;resizable=0;points=[];fontSize=14;labelBorderColor=default;fontFamily=Lucida Console;" vertex="1" connectable="0" parent="qdnZULfPCPuXgq32BraW-38">
          <mxGeometry as="geometry">
            <mxPoint x="11" y="2" as="offset" />
          </mxGeometry>
        </mxCell>
      </root>
    </mxGraphModel>
  </diagram>
</mxfile>
